<svg width="70" height="72" viewBox="0 0 70 72" fill="none" xmlns="http://www.w3.org/2000/svg">
<g id="Big-setting">
<path id="Vector" d="M35.27 6.80371C29.6352 6.80371 24.127 8.53143 19.4418 11.7684C14.7567 15.0054 11.1051 19.6062 8.94872 24.989C6.79237 30.3719 6.22818 36.295 7.32747 42.0095C8.42676 47.7239 11.1402 52.9729 15.1246 57.0928C19.109 61.2127 24.1854 64.0183 29.7119 65.155C35.2384 66.2917 40.9668 65.7083 46.1727 63.4786C51.3786 61.249 55.8281 57.4732 58.9586 52.6287C62.0891 47.7843 63.76 42.0887 63.76 36.2624C63.7613 32.3934 63.0253 28.5621 61.594 24.9874C60.1628 21.4127 58.0642 18.1647 55.4184 15.4289C52.7726 12.6932 49.6314 10.5233 46.1742 9.04335C42.7171 7.56339 39.0118 6.80235 35.27 6.80371ZM35.27 50.0146C32.6371 50.0146 30.0634 49.2072 27.8744 47.6944C25.6853 46.1817 23.9794 44.0317 22.9722 41.5163C21.9651 39.001 21.7021 36.2332 22.2165 33.5633C22.7309 30.8933 23.9995 28.4411 25.862 26.5168C27.7244 24.5925 30.097 23.2825 32.6795 22.7527C35.2621 22.2228 37.9386 22.4968 40.3705 23.5401C42.8024 24.5833 44.8804 26.3489 46.3418 28.6135C47.8031 30.8781 48.582 33.54 48.58 36.2624C48.58 38.0692 48.2357 39.8583 47.5667 41.5275C46.8977 43.1967 45.9171 44.7132 44.681 45.9903C43.4449 47.2674 41.9776 48.2802 40.3628 48.9707C38.748 49.6612 37.0175 50.0159 35.27 50.0146Z" fill="#455A64"/>
<path id="Vector_2" d="M40.7501 8.02384H29.79L30.4001 0H40.14L40.7501 8.02384Z" fill="#455A64"/>
<path id="Vector_3" d="M19.89 11.8393L12.15 19.8528L7.08997 13.7315L13.9799 6.60727L19.89 11.8393Z" fill="#455A64"/>
<path id="Vector_4" d="M7.75998 29.7895V41.1118L0 40.4914V30.4099L7.75998 29.7895Z" fill="#455A64"/>
<path id="Vector_5" d="M11.45 51.3484L19.2 59.3619L13.28 64.5836L6.39001 57.4594L11.45 51.3484Z" fill="#455A64"/>
<path id="Vector_6" d="M28.8101 63.9012H39.76L39.1601 71.9147H29.4101L28.8101 63.9012Z" fill="#455A64"/>
<path id="Vector_7" d="M49.66 60.0754L57.41 52.0722L62.46 58.1832L55.57 65.3074L49.66 60.0754Z" fill="#455A64"/>
<path id="Vector_8" d="M61.8 42.1355V30.8029L69.55 31.4336V41.5048L61.8 42.1355Z" fill="#455A64"/>
<path id="Vector_9" d="M58.1 20.5663L50.36 12.5631L56.27 7.33105L63.16 14.4553L58.1 20.5663Z" fill="#455A64"/>
</g>
</svg>
