<svg width="39" height="39" viewBox="0 0 39 39" fill="none" xmlns="http://www.w3.org/2000/svg">
<g id="small-setting">
<path id="Vector" d="M32.54 34.3526L38.05 25.181L35.33 23.4439C34.9408 23.1899 34.6272 22.8293 34.4242 22.4022C34.2212 21.9751 34.1367 21.4981 34.18 21.0243C34.21 20.4871 34.21 19.9485 34.18 19.4113C34.1662 18.9369 34.2806 18.4679 34.5102 18.057C34.7398 17.646 35.0756 17.3094 35.48 17.0848L38.3 15.5234L33.4 6.052L30.58 7.61334C30.175 7.83543 29.7183 7.93663 29.2609 7.90559C28.8034 7.87454 28.3634 7.71248 27.99 7.43756C27.5623 7.12955 27.1182 6.84649 26.66 6.58969C26.2553 6.36465 25.9187 6.02818 25.6875 5.61757C25.4563 5.20695 25.3395 4.7382 25.35 4.26319L25.45 0.954392L15.02 0.623505L14.92 3.94265C14.9009 4.41697 14.7554 4.87659 14.4995 5.27075C14.2436 5.6649 13.8873 5.97821 13.47 6.17608C13.23 6.27948 13.01 6.40357 12.78 6.52765C12.55 6.65173 12.33 6.78614 12.11 6.92056C11.7206 7.16846 11.2723 7.29973 10.815 7.29973C10.3577 7.29973 9.90939 7.16846 9.51999 6.92056L6.77997 5.1731L1.27997 14.3447L3.99997 16.0922C4.3892 16.3462 4.70272 16.7067 4.90573 17.1339C5.10874 17.561 5.1933 18.0379 5.14999 18.5117C5.10322 19.0445 5.0865 19.5796 5.09998 20.1144C5.11374 20.5888 4.9994 21.0578 4.76978 21.4687C4.54015 21.8797 4.20434 22.2163 3.79999 22.4409L0.97998 24.0022L5.91998 33.5254L8.72998 31.902C9.13495 31.6799 9.59169 31.5787 10.0491 31.6098C10.5065 31.6408 10.9466 31.8029 11.32 32.0778C11.7466 32.3811 12.1867 32.6603 12.64 32.9153C13.0462 33.1385 13.3841 33.4746 13.6155 33.8856C13.847 34.2967 13.9628 34.7664 13.95 35.2418L13.86 38.561L24.29 38.8918L24.39 35.583C24.4102 35.109 24.5561 34.6499 24.8119 34.2559C25.0676 33.862 25.4233 33.5484 25.84 33.3496L26.54 32.998C26.76 32.8636 26.99 32.7395 27.21 32.5948C27.6009 32.346 28.0509 32.2142 28.51 32.2142C28.969 32.2142 29.419 32.346 29.81 32.5948L32.54 34.3526ZM23.73 27.5385C22.2394 28.3634 20.5457 28.7128 18.863 28.5426C17.1804 28.3724 15.5843 27.6901 14.2766 26.5822C12.9688 25.4742 12.0081 23.9902 11.5159 22.3177C11.0237 20.6453 11.0221 18.8595 11.5112 17.1861C12.0004 15.5127 12.9583 14.0268 14.264 12.9163C15.5697 11.8057 17.1646 11.1204 18.8469 10.9469C20.5292 10.7733 22.2235 11.1194 23.7157 11.9414C25.2078 12.7634 26.4308 14.0243 27.23 15.5648C27.7624 16.5882 28.0942 17.7102 28.2065 18.8665C28.3187 20.0228 28.2091 21.1906 27.8839 22.3029C27.5588 23.4153 27.0244 24.4504 26.3116 25.3488C25.5988 26.2473 24.7215 26.9914 23.73 27.5385Z" fill="#455A64"/>
</g>
</svg>
