<?xml version="1.0" encoding="UTF-8" standalone="no"?>
<svg
   xmlns:dc="http://purl.org/dc/elements/1.1/"
   xmlns:cc="http://creativecommons.org/ns#"
   xmlns:rdf="http://www.w3.org/1999/02/22-rdf-syntax-ns#"
   xmlns:svg="http://www.w3.org/2000/svg"
   xmlns="http://www.w3.org/2000/svg"
   xmlns:sodipodi="http://sodipodi.sourceforge.net/DTD/sodipodi-0.dtd"
   xmlns:inkscape="http://www.inkscape.org/namespaces/inkscape"
   width="210mm"
   height="297mm"
   viewBox="0 0 210 297"
   version="1.1"
   id="svg5049"
   inkscape:version="1.0 (4035a4fb49, 2020-05-01)"
   sodipodi:docname="Aspire logo.svg">
  <defs
     id="defs5043">
    <filter
       style="color-interpolation-filters:sRGB"
       inkscape:label="Greyscale"
       id="filter1030">
      <feColorMatrix
         values="0.21 0.72 0.072 0 0 0.21 0.72 0.072 0 0 0.21 0.72 0.072 0 0 0 0 0 1 0 "
         id="feColorMatrix1028" />
    </filter>
    <filter
       style="color-interpolation-filters:sRGB"
       inkscape:label="Greyscale"
       id="filter1034">
      <feColorMatrix
         values="0.21 0.72 0.072 0 0 0.21 0.72 0.072 0 0 0.21 0.72 0.072 0 0 0 0 0 1 0 "
         id="feColorMatrix1032" />
    </filter>
    <radialGradient
       id="SVGID_1_"
       cx="49.098598"
       cy="47.3232"
       r="45.340801"
       gradientUnits="userSpaceOnUse"
       gradientTransform="translate(-3.1558375,0.42700006)">
      <stop
         offset="0"
         style="stop-color:#A9CA53"
         id="stop2" />
      <stop
         offset="1"
         style="stop-color:#7CAF2A"
         id="stop4" />
    </radialGradient>
    <filter
       style="color-interpolation-filters:sRGB"
       inkscape:label="Greyscale"
       id="filter1038">
      <feColorMatrix
         values="0.21 0.72 0.072 0 0 0.21 0.72 0.072 0 0 0.21 0.72 0.072 0 0 0 0 0 1 0 "
         id="feColorMatrix1036" />
    </filter>
    <radialGradient
       id="radialGradient6394"
       cx="49.098598"
       cy="47.3232"
       r="45.340801"
       gradientUnits="userSpaceOnUse"
       gradientTransform="translate(-3.1558375,0.42700006)">
      <stop
         offset="0"
         style="stop-color:#A9CA53"
         id="stop6390" />
      <stop
         offset="1"
         style="stop-color:#7CAF2A"
         id="stop6392" />
    </radialGradient>
    <radialGradient
       id="radialGradient6401"
       cx="49.098598"
       cy="47.3232"
       r="45.340801"
       gradientUnits="userSpaceOnUse"
       gradientTransform="translate(-3.1558375,0.42700006)">
      <stop
         offset="0"
         style="stop-color:#A9CA53"
         id="stop6397" />
      <stop
         offset="1"
         style="stop-color:#7CAF2A"
         id="stop6399" />
    </radialGradient>
    <radialGradient
       id="radialGradient6407"
       cx="49.098598"
       cy="47.3232"
       r="45.340801"
       gradientUnits="userSpaceOnUse"
       gradientTransform="translate(-3.1558375,0.42700006)">
      <stop
         offset="0"
         style="stop-color:#A9CA53"
         id="stop6403" />
      <stop
         offset="1"
         style="stop-color:#7CAF2A"
         id="stop6405" />
    </radialGradient>
  </defs>
  <sodipodi:namedview
     id="base"
     pagecolor="#ffffff"
     bordercolor="#666666"
     borderopacity="1.0"
     inkscape:pageopacity="0.0"
     inkscape:pageshadow="2"
     inkscape:zoom="2.4217989"
     inkscape:cx="361.83388"
     inkscape:cy="664.81907"
     inkscape:document-units="mm"
     inkscape:current-layer="layer1"
     showgrid="false"
     inkscape:window-width="1366"
     inkscape:window-height="715"
     inkscape:window-x="-8"
     inkscape:window-y="-8"
     inkscape:window-maximized="1"
     inkscape:document-rotation="0"
     inkscape:snap-text-baseline="false" />
  <metadata
     id="metadata5046">
    <rdf:RDF>
      <cc:Work
         rdf:about="">
        <dc:format>image/svg+xml</dc:format>
        <dc:type
           rdf:resource="http://purl.org/dc/dcmitype/StillImage" />
        <dc:title />
      </cc:Work>
    </rdf:RDF>
  </metadata>
  <g
     inkscape:label="Layer 1"
     inkscape:groupmode="layer"
     id="layer1">
    <rect
       style="opacity:1;fill:#1a1a1a;fill-opacity:1;stroke:none;stroke-width:0.0511251;stroke-linecap:round;stroke-linejoin:round;stroke-miterlimit:4;stroke-dasharray:none;stroke-opacity:1;paint-order:stroke fill markers"
       id="rect1976"
       width="79.521988"
       height="18.777777"
       x="63.847843"
       y="159.179" />
    <polygon
       transform="matrix(0.26458333,0,0,0.26458333,70.930246,162.7341)"
       class="cls-1"
       points="1.64,44.93 1.64,51.51 5.5,51.51 5.5,52.77 0,52.77 0,44.93 "
       id="polygon1446"
       style="fill:#ffffff;stroke:none;stroke-opacity:1" />
    <path
       class="cls-1"
       d="m 74.33808,174.62183 h 0.47625 l 0.79375,2.07433 h -0.4445 l -0.198438,-0.49742 h -0.772583 l -0.193146,0.49742 H 73.54433 Z m 0.560916,1.24089 -0.320146,-0.83608 -0.314854,0.83608 z"
       id="path1448"
       inkscape:connector-curvature="0"
       style="fill:#ffffff;stroke:none;stroke-width:0.26458332;stroke-opacity:1" />
    <path
       class="cls-1"
       d="m 76.938934,174.62183 h 1.058333 a 0.64822917,0.64822917 0 0 1 0.463021,0.14552 0.52916667,0.52916667 0 0 1 0.142875,0.41539 0.5635625,0.5635625 0 0 1 -0.0635,0.26459 0.41804167,0.41804167 0 0 1 -0.177271,0.17462 0.44979167,0.44979167 0 0 1 0.235479,0.15875 0.47889583,0.47889583 0 0 1 0.08202,0.29898 0.59002083,0.59002083 0 0 1 -0.169333,0.45508 0.714375,0.714375 0 0 1 -0.489479,0.15082 h -1.082146 z m 0.968375,0.85989 c 0.195791,0 0.293687,-0.0873 0.293687,-0.26458 a 0.26458333,0.26458333 0 0 0 -0.07144,-0.20638 0.381,0.381 0 0 0 -0.264584,-0.0661 h -0.502708 v 0.52917 z m 0.01588,0.89694 a 0.36247917,0.36247917 0 0 0 0.243416,-0.0688 0.3175,0.3175 0 0 0 0.07673,-0.23813 0.24870833,0.24870833 0 0 0 -0.07937,-0.20637 0.41804167,0.41804167 0 0 0 -0.264584,-0.0688 h -0.529166 v 0.58208 z"
       id="path1450"
       inkscape:connector-curvature="0"
       style="fill:#ffffff;stroke:none;stroke-width:0.26458332;stroke-opacity:1" />
    <path
       class="cls-1"
       d="m 79.846705,176.61678 v -0.38893 a 1.9102917,1.9102917 0 0 0 0.309562,0.0926 1.5266458,1.5266458 0 0 0 0.320146,0.037 0.90222917,0.90222917 0 0 0 0.338667,-0.045 0.18785417,0.18785417 0 0 0 0.100541,-0.18786 0.23547917,0.23547917 0 0 0 -0.04498,-0.14816 0.35189583,0.35189583 0 0 0 -0.150812,-0.0952 c -0.06879,-0.0265 -0.174625,-0.0609 -0.320146,-0.10055 a 1.031875,1.031875 0 0 1 -0.457728,-0.22753 0.50270833,0.50270833 0 0 1 -0.132292,-0.37306 0.52916667,0.52916667 0 0 1 0.209021,-0.44186 1.0133542,1.0133542 0 0 1 0.608541,-0.15346 2.38125,2.38125 0 0 1 0.343959,0.0238 1.254125,1.254125 0 0 1 0.264583,0.0635 v 0.38365 a 1.49225,1.49225 0 0 0 -0.550333,-0.10054 0.84402083,0.84402083 0 0 0 -0.325438,0.0476 0.174625,0.174625 0 0 0 -0.108479,0.17727 0.1984375,0.1984375 0 0 0 0.03969,0.12965 0.32014583,0.32014583 0 0 0 0.134937,0.0847 3.048,3.048 0 0 0 0.293688,0.09 1.0186458,1.0186458 0 0 1 0.500062,0.2487 0.5635625,0.5635625 0 0 1 0.140229,0.39159 0.52916667,0.52916667 0 0 1 -0.214312,0.43921 1.031875,1.031875 0 0 1 -0.627063,0.16139 1.7065625,1.7065625 0 0 1 -0.672041,-0.11377"
       id="path1452"
       inkscape:connector-curvature="0"
       style="fill:#ffffff;stroke:none;stroke-width:0.26458332;stroke-opacity:1" />
    <path
       class="cls-1"
       d="m 85.900371,172.39403 a 5.7785,5.7785 0 0 1 -1.449916,-0.43656 v -2.29129 a 7.8687083,7.8687083 0 0 0 1.494895,0.50271 6.4717083,6.4717083 0 0 0 1.50548,0.19314 3.3469792,3.3469792 0 0 0 1.145645,-0.14022 0.52916667,0.52916667 0 0 0 0.34925,-0.55563 0.58208333,0.58208333 0 0 0 -0.171979,-0.43392 1.3599583,1.3599583 0 0 0 -0.494771,-0.29633 c -0.216958,-0.0847 -0.560916,-0.20108 -1.03452,-0.3466 -0.156105,-0.0397 -0.264584,-0.0741 -0.354542,-0.10319 a 6.1674375,6.1674375 0 0 1 -1.529292,-0.68263 2.174875,2.174875 0 0 1 -0.79375,-0.89429 3.1141458,3.1141458 0 0 1 -0.243416,-1.30704 2.4765,2.4765 0 0 1 1.005416,-2.13519 q 1.000125,-0.73289 2.950104,-0.73289 a 10.612437,10.612437 0 0 1 1.5875,0.127 8.6068958,8.6068958 0 0 1 1.383771,0.30162 v 2.30717 a 6.7865625,6.7865625 0 0 0 -2.526771,-0.52917 4.3047708,4.3047708 0 0 0 -1.17475,0.11906 0.49741667,0.49741667 0 0 0 -0.391583,0.51594 0.508,0.508 0 0 0 0.161396,0.39952 1.4022917,1.4022917 0 0 0 0.494771,0.26459 c 0.22225,0.0741 0.600604,0.17991 1.132416,0.3175 a 5.6858958,5.6858958 0 0 1 1.751542,0.74612 2.38125,2.38125 0 0 1 0.849313,1.00013 3.4633958,3.4633958 0 0 1 0.235479,1.35731 2.492375,2.492375 0 0 1 -1.026584,2.11667 q -1.039812,0.77258 -3.024187,0.77258 a 10.31875,10.31875 0 0 1 -1.830917,-0.15611"
       id="path1454"
       inkscape:connector-curvature="0"
       style="fill:#ffffff;stroke:none;stroke-width:0.26458332;stroke-opacity:1" />
    <path
       class="cls-1"
       d="m 95.774621,162.88226 h 4.908019 c 1.12183,0 1.97644,0.32544 2.55587,0.97632 a 3.6459583,3.6459583 0 0 1 0.87313,2.52677 3.6644792,3.6644792 0 0 1 -0.42863,1.78858 3.0771042,3.0771042 0 0 1 -1.21973,1.22767 3.7041667,3.7041667 0 0 1 -1.85208,0.44185 h -2.058454 v 2.55852 h -2.778125 z m 4.212164,4.83394 a 1.2356042,1.2356042 0 0 0 0.955145,-0.36248 1.381125,1.381125 0 0 0 0.33073,-0.96837 1.5425208,1.5425208 0 0 0 -0.30163,-1.00542 1.1244792,1.1244792 0 0 0 -0.91016,-0.37042 h -1.508124 v 2.70669 z"
       id="path1456"
       inkscape:connector-curvature="0"
       style="fill:#ffffff;stroke:none;stroke-width:0.26458332;stroke-opacity:1" />
    <rect
       class="cls-1"
       x="107.80787"
       y="162.88226"
       width="2.778125"
       height="9.5197086"
       id="rect1458"
       style="fill:#ffffff;stroke:none;stroke-width:0.26458332;stroke-opacity:1" />
    <path
       class="cls-1"
       d="m 114.87224,162.88226 h 4.953 q 1.68804,0 2.54265,0.91546 0.8546,0.91546 0.85725,2.46856 a 3.0347708,3.0347708 0 0 1 -0.47361,1.68011 3.1564792,3.1564792 0 0 1 -1.28587,1.13771 1.3573125,1.3573125 0 0 1 0.28046,0.30956 3.3575625,3.3575625 0 0 1 0.26458,0.52917 l 1.09273,2.49766 h -2.89454 l -1.00542,-2.29129 a 0.83872917,0.83872917 0 0 0 -0.28575,-0.37571 0.889,0.889 0 0 0 -0.48154,-0.11112 h -0.79375 v 2.77812 h -2.77019 z m 4.23334,4.61169 a 1.3070417,1.3070417 0 0 0 0.93927,-0.3175 1.2065,1.2065 0 0 0 0.33073,-0.91017 c 0,-0.83608 -0.39423,-1.25677 -1.18269,-1.25677 h -1.55046 v 2.48709 z"
       id="path1460"
       inkscape:connector-curvature="0"
       style="fill:#ffffff;stroke:none;stroke-width:0.26458332;stroke-opacity:1" />
    <polygon
       transform="matrix(0.26458333,0,0,0.26458333,70.930246,162.7341)"
       class="cls-1"
       points="240,0.56 240,8.6 223.24,8.6 223.24,14.47 237.93,14.47 237.93,22.63 223.24,22.63 223.24,28.49 240,28.49 240,36.54 212.74,36.54 212.74,0.56 "
       id="polygon1462"
       style="fill:#ffffff;stroke:none;stroke-opacity:1" />
    <polygon
       transform="matrix(0.26458333,0,0,0.26458333,70.930246,162.7341)"
       class="cls-1"
       points="25.16,0.65 13.98,0.65 0,36.53 17.42,36.53 17.42,28.78 12.33,28.78 19.57,10.32 26.81,28.79 21.62,28.78 21.62,36.53 39.15,36.53 "
       id="polygon1464"
       style="fill:#ffffff;stroke:none;stroke-opacity:1"
       inkscape:export-filename="C:\Users\dell\Documents\Aspire labs\logo_small.png"
       inkscape:export-xdpi="300.03357"
       inkscape:export-ydpi="300.03357" />
    <polygon
       transform="matrix(0.26458333,0,0,0.26458333,23.252332,159.624)"
       class="cls-1"
       points="1.64,44.93 1.64,51.51 5.5,51.51 5.5,52.77 0,52.77 0,44.93 "
       id="polygon1446-4"
       style="fill:#ffffff;stroke:none;stroke-opacity:1" />
    <path
       class="cls-1"
       d="m 26.660167,171.51173 h 0.47625 l 0.79375,2.07433 h -0.4445 l -0.198438,-0.49742 h -0.772583 l -0.193146,0.49742 h -0.455083 z m 0.560916,1.24089 -0.320146,-0.83608 -0.314854,0.83608 z"
       id="path1448-4"
       inkscape:connector-curvature="0"
       style="fill:#ffffff;stroke:none;stroke-width:0.26458332;stroke-opacity:1" />
    <path
       class="cls-1"
       d="m 29.261021,171.51173 h 1.058333 a 0.64822917,0.64822917 0 0 1 0.463021,0.14552 0.52916667,0.52916667 0 0 1 0.142875,0.41539 0.5635625,0.5635625 0 0 1 -0.0635,0.26459 0.41804167,0.41804167 0 0 1 -0.177271,0.17462 0.44979167,0.44979167 0 0 1 0.235479,0.15875 0.47889583,0.47889583 0 0 1 0.08202,0.29898 0.59002083,0.59002083 0 0 1 -0.169333,0.45508 0.714375,0.714375 0 0 1 -0.489479,0.15082 H 29.26102 Z m 0.968375,0.85989 c 0.195791,0 0.293687,-0.0873 0.293687,-0.26458 a 0.26458333,0.26458333 0 0 0 -0.07144,-0.20638 0.381,0.381 0 0 0 -0.264584,-0.0661 h -0.502708 v 0.52917 z m 0.01588,0.89694 a 0.36247917,0.36247917 0 0 0 0.243416,-0.0688 0.3175,0.3175 0 0 0 0.07673,-0.23813 0.24870833,0.24870833 0 0 0 -0.07937,-0.20637 0.41804167,0.41804167 0 0 0 -0.264584,-0.0688 h -0.529166 v 0.58208 z"
       id="path1450-5"
       inkscape:connector-curvature="0"
       style="fill:#ffffff;stroke:none;stroke-width:0.26458332;stroke-opacity:1" />
    <path
       class="cls-1"
       d="m 32.168792,173.50668 v -0.38893 a 1.9102917,1.9102917 0 0 0 0.309562,0.0926 1.5266458,1.5266458 0 0 0 0.320146,0.037 0.90222917,0.90222917 0 0 0 0.338667,-0.045 0.18785417,0.18785417 0 0 0 0.100541,-0.18786 0.23547917,0.23547917 0 0 0 -0.04498,-0.14816 0.35189583,0.35189583 0 0 0 -0.150812,-0.0952 c -0.06879,-0.0265 -0.174625,-0.0609 -0.320146,-0.10055 a 1.031875,1.031875 0 0 1 -0.457728,-0.22753 0.50270833,0.50270833 0 0 1 -0.132292,-0.37306 0.52916667,0.52916667 0 0 1 0.209021,-0.44186 1.0133542,1.0133542 0 0 1 0.608541,-0.15346 2.38125,2.38125 0 0 1 0.343959,0.0238 1.254125,1.254125 0 0 1 0.264583,0.0635 v 0.38365 a 1.49225,1.49225 0 0 0 -0.550333,-0.10054 0.84402083,0.84402083 0 0 0 -0.325438,0.0476 0.174625,0.174625 0 0 0 -0.108479,0.17727 0.1984375,0.1984375 0 0 0 0.03969,0.12965 0.32014583,0.32014583 0 0 0 0.134937,0.0847 3.048,3.048 0 0 0 0.293688,0.09 1.0186458,1.0186458 0 0 1 0.500062,0.2487 0.5635625,0.5635625 0 0 1 0.140229,0.39159 0.52916667,0.52916667 0 0 1 -0.214312,0.43921 1.031875,1.031875 0 0 1 -0.627063,0.16139 1.7065625,1.7065625 0 0 1 -0.672041,-0.11377"
       id="path1452-2"
       inkscape:connector-curvature="0"
       style="fill:#ffffff;stroke:none;stroke-width:0.26458332;stroke-opacity:1" />
    <line
       style="fill:none;stroke-width:0.26458332"
       x1="49.93483"
       y1="276.86725"
       x2="49.93483"
       y2="235.58379"
       id="line11" />
    <line
       id="line841"
       y2="270.22183"
       x2="48.163574"
       y1="311.50531"
       x1="48.163574"
       style="fill:none;stroke-width:0.26458332" />
    <text
       xml:space="preserve"
       style="font-size:2.11667px;line-height:0px;font-family:'Times New Roman';-inkscape-font-specification:'Times New Roman, Normal';letter-spacing:1.2065px;word-spacing:1.5875px;stroke-width:0.264583"
       x="108.93003"
       y="176.07112"
       id="text944"><tspan
         sodipodi:role="line"
         id="tspan942"
         x="109.53328"
         y="176.07112"
         style="font-style:normal;font-variant:normal;font-weight:bold;font-stretch:normal;font-size:2.11667px;font-family:'Times New Roman';-inkscape-font-specification:'Times New Roman, Bold';text-align:center;text-anchor:middle;fill:#ffffff;stroke-width:0.264583">SCALING UP STARTUPS</tspan></text>
  </g>
</svg>
