<svg xmlns="http://www.w3.org/2000/svg" viewBox="0 0 126.1 25"><defs><style>.cls-1{fill:#fff;}</style></defs><title>huddle-logo-white</title><g id="Layer_2" data-name="Layer 2"><g id="Layer_1-2" data-name="Layer 1"><path class="cls-1" d="M66.19,15.62l-2.87,1.63-12.9,7.39A2.28,2.28,0,0,1,47,23.42a2.72,2.72,0,0,1-.11-.75c0-2.57,0-5.13,0-7.7,0-.07,0-.14,0-.24h4.58v2.95c0,.77.25.91.92.55,3.24-1.78,6.48-3.55,9.71-5.34a.8.8,0,0,0,.42-.49c0-.14-.23-.36-.4-.46L52.33,6.58c-.6-.33-.86-.18-.86.51V10.3h-4.6V2.48A2.3,2.3,0,0,1,50.48.41L65.71,9.16l.48.24v-7a2.28,2.28,0,0,1,3.54-2L87.31,10.47a2.28,2.28,0,0,1,0,4.12l-17.51,10a2.29,2.29,0,0,1-3.59-2.09v-6.9Zm4.6-3.21v5.3c0,.74.24.88.9.52q4.86-2.65,9.71-5.33c.19-.1.43-.31.44-.48s-.24-.39-.43-.49L71.66,6.59c-.63-.35-.87-.2-.87.52Z"></path><path class="cls-1" d="M16.37,14.7H4.69V24c0,.81-.18,1-1,1H.83C.21,25,0,24.78,0,24.15V.88C0,.23.23,0,.9,0H3.72c.75,0,1,.21,1,1v9.36H16.37V.94c0-.74.2-.94,1-.94h2.78c.66,0,.9.23.9.88V24.11c0,.68-.2.89-.87.89H17.22c-.65,0-.85-.2-.85-.85V14.7Z"></path><path class="cls-1" d="M114.85,10.33h8.57c.72,0,.92.2.92.93v2.52c0,.66-.19.86-.85.86h-8.11c-.56,0-.56,0-.56.58,0,1.67,0,3.34,0,5,0,.44.14.53.55.53h9.83c.74,0,.91.18.91.92s0,1.71,0,2.57c0,.52-.22.76-.74.76H110.93c-.56,0-.76-.22-.76-.77V1c0-.81.22-1,1-1h13.93c.81,0,1,.18,1,1V3.35c0,.76-.18.93-.95.93H115.7a2.41,2.41,0,0,1-.38,0c-.38,0-.51.08-.51.48,0,1.7,0,3.4,0,5.1A4.54,4.54,0,0,0,114.85,10.33Z"></path><path class="cls-1" d="M24.11,8.47c0-2.5,0-5,0-7.49,0-.78.19-1,1-1h2.83c.68,0,.88.2.88.88q0,7.07,0,14.14a5.46,5.46,0,0,0,1.09,3.47A4.9,4.9,0,0,0,35,20.32a4.79,4.79,0,0,0,3.86-3.74,6,6,0,0,0,.18-1.53q0-7.07,0-14.11c0-.75.19-.94.95-.94h2.87c.63,0,.88.25.88.87,0,4.94,0,9.88,0,14.82a9.56,9.56,0,0,1-8.33,9.21,9.7,9.7,0,0,1-11.32-9.73C24.12,12.93,24.11,10.7,24.11,8.47Z"></path><path class="cls-1" d="M96.05,20.75h10.41c.75,0,.91.17.91.92v2.49c0,.65-.19.84-.86.84H92.25c-.65,0-.85-.19-.85-.82V.82c0-.59.24-.81.83-.82H95.1c.72,0,1,.23,1,1V20.75Z"></path></g></g></svg>